<?xml version="1.0" encoding="iso-8859-1"?>
<svg fill="#000000" height="800px" version="1.1" viewBox="0 0 464.184 464.185" width="800px"
    xml:space="preserve">
<g>
	<path d="M388.041,108.886h-88.136V12.434C299.905,5.569,294.339,0,287.471,0H176.704c-6.865,0-12.434,5.568-12.434,12.434v96.452
		H76.143c-6.867,0-12.434,5.567-12.434,12.434v110.773c0,6.867,5.566,12.433,12.434,12.433h88.127v207.226
		c0,6.867,5.568,12.434,12.434,12.434h110.768c6.867,0,12.435-5.565,12.435-12.434V244.527h88.135
		c6.867,0,12.434-5.566,12.434-12.434V121.32C400.474,114.454,394.908,108.886,388.041,108.886z" />
</g>
</svg>